<svg fill="none" height="344" viewBox="0 0 400 344" width="400" xmlns="http://www.w3.org/2000/svg"><path d="m35.1841 170.376c0 42.435 16.8571 83.131 46.8629 113.137 30.006 30.006 70.702 46.863 113.137 46.863s83.131-16.857 113.137-46.863 46.863-70.702 46.863-113.137-16.857-83.1313-46.863-113.1371-70.702-46.8629-113.137-46.8629-83.131 16.8571-113.137 46.8629c-30.0058 30.0058-46.8629 70.7021-46.8629 113.1371z" fill="#d9edff"/><g stroke-linecap="round" stroke-linejoin="round" stroke-width="4"><path d="m95.844 77.5-55.136 124.36" stroke="#020064"/><path d="m146.424 283.964-105.716-82.104" stroke="#020064"/><path d="m311.376 161.004-54.792 96.144" stroke="#00aed9"/><path d="m95.8442 77.5 143.4038-30.532" stroke="#020064"/><path d="m311.376 161.004-72.128-114.036" stroke="#020064"/><path d="m311.376 161.004-117.34 26.24-153.328 14.616" stroke="#020064"/><path d="m95.8442 77.5 50.5798 206.464" stroke="#020064"/><path d="m239.248 46.968-45.212 140.276" stroke="#020064"/><path d="m95.8442 77.5 160.7398 179.648" stroke="#020064"/><path d="m256.584 257.148-110.16 26.816" stroke="#020064"/><path d="m40.708 201.86 198.54-154.892" stroke="#020064"/><path d="m1.17212 194.452c0 5.79 1.14037 11.523 3.356 16.872s5.46313 10.209 9.55708 14.303c4.0939 4.094 8.9542 7.341 14.3032 9.557s11.082 3.356 16.8717 3.356 11.5228-1.14 16.8718-3.356 10.2092-5.463 14.3031-9.557c4.094-4.094 7.3415-8.954 9.5571-14.303 2.2157-5.349 3.356-11.082 3.356-16.872s-1.1403-11.523-3.356-16.872c-2.2156-5.349-5.4631-10.209-9.5571-14.303-4.0939-4.094-8.9541-7.341-14.3031-9.557s-11.0821-3.356-16.8718-3.356-11.5227 1.14-16.8717 3.356-10.2093 5.463-14.3032 9.557c-4.09395 4.094-7.34145 8.954-9.55708 14.303s-3.356 11.082-3.356 16.872z" fill="#fff" stroke="#020064"/><path d="m68.8002 205.68c-.0086-.958-.3484-1.883-.9615-2.619-.6132-.735-1.4621-1.236-2.4025-1.417v-2.692c.0376-2.675-.4568-5.331-1.4545-7.814-.9978-2.483-2.4789-4.742-4.3575-6.647s-4.117-3.418-6.5853-4.451c-2.4683-1.032-5.1172-1.564-7.7927-1.564-2.6756 0-5.3245.532-7.7928 1.564-2.4682 1.033-4.7067 2.546-6.5853 4.451-1.8785 1.905-3.3597 4.164-4.3574 6.647-.9978 2.483-1.4922 5.139-1.4545 7.814v2.692c-.9809.184-1.8617.717-2.479 1.501-.6172.784-.9289 1.766-.8771 2.762.0518.997.4636 1.941 1.1588 2.657s1.6266 1.155 2.6213 1.236c.9478 4.541 3.4303 8.617 7.03 11.543s8.0971 4.523 12.736 4.523c4.6388 0 9.1362-1.597 12.7359-4.523s6.0822-7.002 7.0301-11.543c1.0307-.093 1.99-.566 2.6904-1.328s1.0918-1.757 1.0976-2.792z" fill="#fff" stroke="#020064"/></g><path d="m31.8042 208.204c0 .669.2659 1.311.7393 1.785.4733.473 1.1153.739 1.7847.739s1.3114-.266 1.7847-.739c.4734-.474.7393-1.116.7393-1.785s-.2659-1.311-.7393-1.785c-.4733-.473-1.1153-.739-1.7847-.739s-1.3114.266-1.7847.739c-.4734.474-.7393 1.116-.7393 1.785z" fill="#b0d9ff"/><path d="m53.6721 208.204c0 .331.0653.66.1921.966.1269.306.3128.584.5472.819.2344.234.5126.42.8188.547.3063.127.6345.192.9659.192.3315 0 .6597-.065.9659-.192s.5845-.313.8189-.547c.2343-.235.4202-.513.5471-.819.1268-.306.1921-.635.1921-.966s-.0653-.66-.1921-.966c-.1269-.306-.3128-.584-.5471-.819-.2344-.234-.5127-.42-.8189-.547s-.6344-.192-.9659-.192c-.3314 0-.6596.065-.9659.192-.3062.127-.5844.313-.8188.547-.2344.235-.4203.513-.5472.819-.1268.306-.1921.635-.1921.966z" fill="#b0d9ff"/><path d="m40.2161 214.244c1.4937.998 3.2496 1.53 5.046 1.53 1.7963 0 3.5523-.532 5.046-1.53" stroke="#020064" stroke-linecap="round" stroke-linejoin="round" stroke-width="4"/><path d="m67.1321 193.904c.0392-2.897-.4975-5.773-1.579-8.46-1.0815-2.688-2.6862-5.134-4.7209-7.197-2.0347-2.062-4.4589-3.7-7.1317-4.817-2.6729-1.118-5.5412-1.694-8.4384-1.694-2.8971 0-5.7654.576-8.4383 1.694-2.6729 1.117-5.097 2.755-7.1317 4.817-2.0347 2.063-3.6394 4.509-4.7209 7.197-1.0815 2.687-1.6182 5.563-1.5791 8.46v5.048c0 .446.177.873.4921 1.188s.7424.492 1.1879.492h3.368c.4456 0 .8729-.177 1.188-.492.315-.315.492-.742.492-1.188.0017-2.003.4058-3.986 1.1884-5.83.7827-1.845 1.9279-3.513 3.3676-4.906.3679-.361.8139-.633 1.3037-.794.4897-.161 1.01-.207 1.5203-.134 2.123.264 4.0954 1.235 5.6 2.756 1.9882 2.05 4.6098 3.369 7.4407 3.745 2.831.375 5.7057-.216 8.1593-1.677.8444 1.639 1.3864 3.417 1.6 5.248.0481.438.2557.843.5832 1.138s.752.46 1.1928.462h3.364c.446-.001.8733-.179 1.1882-.495.315-.315.4918-.743.4918-1.189z" fill="#fff" stroke="#020064" stroke-linecap="round" stroke-linejoin="round" stroke-width="4"/><path d="m67.1321 193.904c.0392-2.897-.4975-5.773-1.579-8.46-1.0815-2.688-2.6862-5.134-4.7209-7.197-2.0347-2.062-4.4589-3.7-7.1317-4.817-2.6729-1.118-5.5412-1.694-8.4384-1.694-2.8971 0-5.7654.576-8.4383 1.694-2.6729 1.117-5.097 2.755-7.1317 4.817-2.0347 2.063-3.6394 4.509-4.7209 7.197-1.0815 2.687-1.6182 5.563-1.5791 8.46v5.048c0 .446.177.873.4921 1.188s.7424.492 1.1879.492h3.368c.4456 0 .8729-.177 1.188-.492.315-.315.492-.742.492-1.188.0017-2.003.4058-3.986 1.1884-5.83.7827-1.845 1.9279-3.513 3.3676-4.906.3679-.361.8139-.633 1.3037-.794.4897-.161 1.01-.207 1.5203-.134 2.123.264 4.0954 1.235 5.6 2.756 1.9882 2.05 4.6098 3.369 7.4407 3.745 2.831.375 5.7057-.216 8.1593-1.677.8444 1.639 1.3864 3.417 1.6 5.248.0481.438.2557.843.5832 1.138s.752.46 1.1928.462h3.364c.446-.001.8733-.179 1.1882-.495.315-.315.4918-.743.4918-1.189z" stroke="#020064" stroke-linecap="round" stroke-linejoin="round" stroke-width="4"/><path d="m58.7 192.112c.1778-.105.3206-.261.4106-.447s.1232-.394.0955-.599c-.0278-.205-.1152-.397-.2514-.552-.1363-.156-.3153-.268-.5147-.322-2.6405-.744-4.9258-2.412-6.44-4.7" fill="#ffdf3d"/><path d="m58.7 192.112c.1778-.105.3206-.261.4106-.447s.1232-.394.0955-.599c-.0278-.205-.1152-.397-.2514-.552-.1363-.156-.3153-.268-.5147-.322-2.6405-.744-4.9258-2.412-6.44-4.7" stroke="#020064" stroke-linecap="round" stroke-linejoin="round" stroke-width="4"/><path d="m35.1682 201.472c0 .331.0653.66.1921.966.1269.306.3128.584.5472.819.2343.234.5126.42.8188.547s.6345.192.9659.192c.3315 0 .6597-.065.9659-.192s.5845-.313.8189-.547c.2343-.235.4202-.513.5471-.819.1268-.306.1921-.635.1921-.966s-.0653-.66-.1921-.966c-.1269-.306-.3128-.584-.5471-.819-.2344-.234-.5127-.42-.8189-.547s-.6344-.192-.9659-.192c-.3314 0-.6597.065-.9659.192s-.5845.313-.8188.547c-.2344.235-.4203.513-.5472.819-.1268.306-.1921.635-.1921.966z" fill="#020064"/><path d="m50.3081 201.472c0 .669.2659 1.311.7393 1.785.4733.473 1.1153.739 1.7847.739s1.3114-.266 1.7847-.739c.4734-.474.7393-1.116.7393-1.785s-.2659-1.311-.7393-1.785c-.4733-.473-1.1153-.739-1.7847-.739s-1.3114.266-1.7847.739c-.4734.474-.7393 1.116-.7393 1.785z" fill="#020064"/><path d="m45.2602 172.032c2.8651-.005 5.703.555 8.3516 1.648s5.0559 2.697 7.0844 4.72c.8945-1.402 1.3756-3.029 1.388-4.692 0-6.504-7.532-11.78-16.824-11.78s-16.8 5.276-16.8 11.78c.0064 1.661.4805 3.287 1.368 4.692 2.0279-2.023 4.4345-3.627 7.0824-4.719 2.6479-1.093 5.4851-1.653 8.3496-1.649z" fill="#fff" stroke="#020064" stroke-linecap="round" stroke-linejoin="round" stroke-width="4"/><path d="m192.956 46.156c0 11.6929 4.645 22.9068 12.913 31.1749s19.482 12.9131 31.175 12.9131 22.907-4.645 31.175-12.9131 12.913-19.482 12.913-31.1749-4.645-22.9068-12.913-31.1749c-8.268-8.26814-19.482-12.91311-31.175-12.91311s-22.907 4.64497-31.175 12.91311c-8.268 8.2681-12.913 19.482-12.913 31.1749z" fill="#fff" stroke="#020064" stroke-linecap="round" stroke-linejoin="round" stroke-width="4"/><path d="m265.64 57.6c-.01-1.0855-.396-2.1341-1.091-2.9675-.696-.8334-1.659-1.4004-2.725-1.6045v-3.052c0-6.0671-2.41-11.8857-6.7-16.1758s-10.109-6.7002-16.176-6.7002-11.885 2.4101-16.176 6.7002c-4.29 4.2901-6.7 10.1087-6.7 16.1758v3.052c-1.114.2056-2.115.8092-2.817 1.6983-.701.8891-1.056 2.003-.997 3.1342.058 1.1312.527 2.2025 1.317 3.0141s1.848 1.3083 2.977 1.3974c1.072 5.1483 3.884 9.7704 7.964 13.0885 4.079 3.318 9.178 5.1295 14.436 5.1295 5.259 0 10.357-1.8115 14.437-5.1295 4.079-3.3181 6.892-7.9402 7.963-13.0885 1.167-.1073 2.253-.645 3.046-1.5086.792-.8636 1.235-1.9912 1.242-3.1634z" fill="#fff" stroke="#020064" stroke-linecap="round" stroke-linejoin="round" stroke-width="4"/><path d="m265.64 57.6c-.01-1.0855-.396-2.1341-1.091-2.9675-.696-.8334-1.659-1.4004-2.725-1.6045v-3.052c0-6.0671-2.41-11.8857-6.7-16.1758s-10.109-6.7002-16.176-6.7002-11.885 2.4101-16.176 6.7002c-4.29 4.2901-6.7 10.1087-6.7 16.1758v3.052c-1.114.2056-2.115.8092-2.817 1.6983-.701.8891-1.056 2.003-.997 3.1342.058 1.1312.527 2.2025 1.317 3.0141s1.848 1.3083 2.977 1.3974c1.072 5.1483 3.884 9.7704 7.964 13.0885 4.079 3.318 9.178 5.1295 14.436 5.1295 5.259 0 10.357-1.8115 14.437-5.1295 4.079-3.3181 6.892-7.9402 7.963-13.0885 1.167-.1073 2.253-.645 3.046-1.5086.792-.8636 1.235-1.9912 1.242-3.1634z" stroke="#020064" stroke-linecap="round" stroke-linejoin="round" stroke-width="4"/><path d="m227.512 52.828c0 .7585.302 1.486.838 2.0223.536.5364 1.264.8377 2.022.8377.759 0 1.486-.3013 2.023-.8377.536-.5363.837-1.2638.837-2.0223s-.301-1.486-.837-2.0223c-.537-.5364-1.264-.8377-2.023-.8377-.758 0-1.486.3013-2.022.8377-.536.5363-.838 1.2638-.838 2.0223z" fill="#020064"/><path d="m244.668 52.828c0 .7585.302 1.486.838 2.0223.536.5364 1.264.8377 2.022.8377.759 0 1.486-.3013 2.023-.8377.536-.5363.837-1.2638.837-2.0223s-.301-1.486-.837-2.0223c-.537-.5364-1.264-.8377-2.023-.8377-.758 0-1.486.3013-2.022.8377-.536.5363-.838 1.2638-.838 2.0223z" fill="#020064"/><path d="m223.7 60.452c0 .7585.302 1.486.838 2.0223.536.5364 1.264.8377 2.022.8377.759 0 1.486-.3013 2.023-.8377.536-.5363.837-1.2638.837-2.0223s-.301-1.486-.837-2.0223c-.537-.5364-1.264-.8377-2.023-.8377-.758 0-1.486.3013-2.022.8377-.536.5363-.838 1.2638-.838 2.0223z" fill="#b0d9ff"/><path d="m248.48 60.452c0 .7585.302 1.486.838 2.0223.536.5364 1.264.8377 2.022.8377.759 0 1.486-.3013 2.023-.8377.536-.5363.837-1.2638.837-2.0223s-.301-1.486-.837-2.0223c-.537-.5364-1.264-.8377-2.023-.8377-.758 0-1.486.3013-2.022.8377-.536.5363-.838 1.2638-.838 2.0223z" fill="#b0d9ff"/><path d="m233.232 67.3c1.693 1.1289 3.683 1.7313 5.718 1.7313s4.025-.6024 5.718-1.7313" stroke="#020064" stroke-linecap="round" stroke-linejoin="round" stroke-width="4"/><path d="m214.168 32.8v17.156c0 .5053.201.99.558 1.3477s.841.5592 1.346.5603h1.928l7.6-19.064z" fill="#fff" stroke="#020064" stroke-linecap="round" stroke-linejoin="round" stroke-width="4"/><path d="m263.732 34.716c-.001-4.0444-1.608-7.9228-4.468-10.7822-2.861-2.8595-6.739-4.4658-10.784-4.4658h-17.156c-.728.0001-1.441-.2085-2.054-.6013-.614-.3928-1.101-.9532-1.406-1.6147-.2-.4434-.516-.8253-.913-1.1065s-.862-.4515-1.347-.4935h-3.24c-2.92-.0565-5.757.9693-7.966 2.8798s-3.633 4.5706-3.998 7.4682c-.285 2.9913.619 5.9747 2.515 8.3054 1.897 2.3307 4.634 3.8216 7.621 4.1506.54 2.0238 1.674 3.8391 3.256 5.2111 1.583 1.3721 3.54 2.2377 5.62 2.4849h3.816c.151-.0014.297-.0518.416-.1437.119-.0918.206-.2201.245-.3653.04-.1452.031-.2995-.024-.4393-.056-.1399-.156-.2578-.285-.3357-1.732-1.0343-2.994-2.703-3.516-4.652-.059-.196-.072-.4033-.037-.605.036-.2018.117-.3926.24-.557.122-.1645.28-.2981.463-.3901s.385-.1399.59-.1399h15.576c.501-.0001.997.0989 1.46.2911s.883.4739 1.236.8289l10.324 10.32h1.904c.251.0005.499-.0485.731-.1442s.442-.2362.62-.4135c.177-.1773.317-.3878.413-.6195.096-.2318.145-.4801.144-.7308z" fill="#fff"/><path d="m263.732 34.716c-.001-4.0444-1.608-7.9228-4.468-10.7822-2.861-2.8595-6.739-4.4658-10.784-4.4658h-17.156c-.728.0001-1.441-.2085-2.054-.6013-.614-.3928-1.101-.9532-1.406-1.6147-.2-.4434-.516-.8253-.913-1.1065s-.862-.4515-1.347-.4935h-3.24c-2.92-.0565-5.757.9693-7.966 2.8798s-3.633 4.5706-3.998 7.4682c-.285 2.9913.619 5.9747 2.515 8.3054 1.897 2.3307 4.634 3.8216 7.621 4.1506.54 2.0238 1.674 3.8391 3.256 5.2111 1.583 1.3721 3.54 2.2377 5.62 2.4849h3.816c.151-.0014.297-.0518.416-.1437.119-.0918.206-.2201.245-.3653.04-.1452.031-.2995-.024-.4393-.056-.1399-.156-.2578-.285-.3357-1.732-1.0343-2.994-2.703-3.516-4.652-.059-.196-.072-.4032-.037-.605.036-.2018.117-.3926.24-.557.122-.1645.28-.2981.463-.3901s.385-.1399.59-.1399h15.576c.501-.0001.997.0989 1.46.2911s.883.4739 1.236.8289l10.324 10.32h1.904c.251.0005.499-.0485.731-.1442s.442-.2362.62-.4135c.177-.1773.317-.3878.413-.6195.096-.2318.145-.4801.144-.7308z" stroke="#020064" stroke-linecap="round" stroke-linejoin="round" stroke-width="4"/><path d="m295.57 254.715 16.006-16.006 28.01 28.011-16.007 16.006z" fill="#fff" stroke="#020064" stroke-linecap="round" stroke-linejoin="round" stroke-width="4"/><path d="m394 336.4-.764.764c-3.092 3.067-7.271 4.788-11.626 4.788s-8.534-1.721-11.626-4.788l-50.54-50.56c-1.022-1.031-1.596-2.424-1.596-3.876s.574-2.845 1.596-3.876l16.264-16.264c1.03-1.022 2.423-1.596 3.874-1.596s2.844.574 3.874 1.596l50.544 50.54c1.535 1.524 2.753 3.337 3.584 5.334s1.259 4.139 1.259 6.302-.428 4.305-1.259 6.302-2.049 3.81-3.584 5.334z" fill="#b0d9ff"/><path d="m394 336.4-.764.764c-3.092 3.067-7.271 4.788-11.626 4.788s-8.534-1.721-11.626-4.788l-50.54-50.56c-1.022-1.031-1.596-2.424-1.596-3.876s.574-2.845 1.596-3.876l16.264-16.264c1.03-1.022 2.423-1.596 3.874-1.596s2.844.574 3.874 1.596l50.544 50.54c1.535 1.524 2.753 3.337 3.584 5.334s1.259 4.139 1.259 6.302-.428 4.305-1.259 6.302-2.049 3.81-3.584 5.334z" stroke="#020064" stroke-linecap="round" stroke-linejoin="round" stroke-width="4"/><path d="m175.146 238.997c11.752 19.204 30.65 32.952 52.538 38.222 21.889 5.269 44.974 1.628 64.177-10.123 19.204-11.752 32.953-30.65 38.222-52.539 5.27-21.888 1.628-44.973-10.123-64.176-11.752-19.204-30.65-32.953-52.538-38.222-21.889-5.27-44.974-1.628-64.177 10.123-19.204 11.751-32.953 30.65-38.222 52.538-5.27 21.889-1.628 44.974 10.123 64.177z" fill="#fff" stroke="#020064" stroke-linecap="round" stroke-linejoin="round" stroke-width="4"/><path d="m295.572 146.672c9.497 9.497 15.964 21.597 18.584 34.77 2.619 13.173 1.274 26.827-3.866 39.235s-13.843 23.014-25.011 30.475c-11.167 7.462-24.296 11.444-37.727 11.444s-26.56-3.982-37.727-11.444c-11.167-7.461-19.871-18.067-25.011-30.475s-6.485-26.062-3.865-39.235c2.619-13.173 9.086-25.273 18.583-34.77 6.306-6.306 13.792-11.309 22.032-14.722 8.239-3.413 17.07-5.17 25.988-5.17s17.749 1.757 25.989 5.17c8.239 3.413 15.725 8.416 22.031 14.722z" fill="#b0d9ff"/><path d="m245.916 227.24c-7.804.044-15.463 2.104-22.236 5.98-6.773 3.877-12.429 9.438-16.42 16.144 11.279 8.305 24.849 12.922 38.853 13.219 14.003.298 27.757-3.738 39.379-11.555-3.847-7.158-9.554-13.146-16.519-17.333-6.965-4.186-14.931-6.416-23.057-6.455z" fill="#fff"/><path d="m245.916 227.24c-7.804.044-15.463 2.104-22.236 5.98-6.773 3.877-12.429 9.438-16.42 16.144 11.279 8.305 24.849 12.922 38.853 13.219 14.003.298 27.757-3.738 39.379-11.555-3.847-7.158-9.554-13.146-16.519-17.333-6.965-4.186-14.931-6.416-23.057-6.455z" stroke="#020064" stroke-linejoin="round" stroke-width="4"/><path d="m259.332 229.42c-.72-.229-1.447-.435-2.18-.616-.847-.214-1.599-.705-2.135-1.395s-.827-1.539-.825-2.413v-13.512h-15.908v13.36c0 .879-.296 1.732-.839 2.422-.543.691-1.303 1.179-2.157 1.386-.92.224-1.836.472-2.74.756l-.092.12c.235 3.414 1.758 6.611 4.259 8.945 2.501 2.335 5.795 3.634 9.217 3.634s6.716-1.299 9.217-3.634c2.502-2.334 4.024-5.531 4.259-8.945z" fill="#fff" stroke="#020064" stroke-linecap="round" stroke-linejoin="round" stroke-width="4"/><path d="m281.732 178c0 9.548-3.793 18.705-10.544 25.456s-15.908 10.544-25.456 10.544-18.704-3.793-25.456-10.544c-6.751-6.751-10.544-15.908-10.544-25.456 0-19.904 10.16-35.52 20.496-38.488.861-.248 1.773-.259 2.64-.033s1.657.681 2.288 1.317c11.192 11.256 46.576-2.772 46.576 37.204z" fill="#fff"/><path d="m281.732 178c0 9.548-3.793 18.705-10.544 25.456s-15.908 10.544-25.456 10.544-18.704-3.793-25.456-10.544c-6.751-6.751-10.544-15.908-10.544-25.456 0-19.904 10.16-35.52 20.496-38.488.861-.248 1.773-.259 2.64-.033s1.657.681 2.288 1.317c11.192 11.256 46.576-2.772 46.576 37.204z" stroke="#020064" stroke-linecap="round" stroke-linejoin="round" stroke-width="4"/><path d="m275.764 187-6.044 3-4.36-15.256c-.407-1.465-1.36-2.719-2.662-3.504-1.302-.786-2.856-1.043-4.342-.72-8.306 1.979-16.961 1.979-25.268 0-1.486-.322-3.039-.064-4.341.721s-2.255 2.038-2.663 3.503l-4.36 15.256-5.952-3c-8.564 0-8 15 1.496 15h.028c1.88 6.083 5.658 11.405 10.782 15.184 5.124 3.78 11.323 5.819 17.69 5.819s12.567-2.039 17.69-5.819c5.124-3.779 8.903-9.101 10.782-15.184 9.508 0 10.084-15 1.524-15z" fill="#fff" stroke="#020064" stroke-linecap="round" stroke-linejoin="round" stroke-width="4"/><path d="m232.884 187.752c0 .94.373 1.841 1.038 2.506s1.566 1.038 2.506 1.038 1.841-.373 2.506-1.038 1.038-1.566 1.038-2.506-.373-1.841-1.038-2.506-1.566-1.038-2.506-1.038-1.841.373-2.506 1.038-1.038 1.566-1.038 2.506z" fill="#020064"/><path d="m251.62 187.752c0 .94.374 1.841 1.038 2.506.665.665 1.566 1.038 2.506 1.038s1.841-.373 2.506-1.038 1.038-1.566 1.038-2.506-.373-1.841-1.038-2.506-1.566-1.038-2.506-1.038-1.841.373-2.506 1.038c-.664.665-1.038 1.566-1.038 2.506z" fill="#020064"/><path d="m230.8 196c0 .594-.176 1.174-.506 1.667-.33.494-.798.878-1.347 1.105-.548.227-1.152.286-1.734.17s-1.116-.402-1.536-.822c-.419-.42-.704-.955-.82-1.537-.115-.582-.055-1.186.173-1.734.227-.548.612-1.016 1.106-1.345.494-.33 1.075-.505 1.668-.504.394 0 .784.078 1.147.228.364.151.695.372.973.651s.499.609.649.973.228.754.227 1.148z" fill="#b0d9ff"/><path d="m266.8 196c0 .593-.176 1.173-.506 1.667-.329.493-.798.878-1.346 1.105s-1.151.286-1.733.17c-.582-.115-1.117-.401-1.536-.821-.42-.419-.706-.954-.821-1.536-.116-.582-.057-1.185.17-1.733s.612-1.017 1.105-1.346c.494-.33 1.074-.506 1.667-.506.796 0 1.559.316 2.121.879.563.562.879 1.325.879 2.121z" fill="#b0d9ff"/><path d="m238.308 205.732c2.221 1.479 4.83 2.268 7.498 2.268s5.277-.789 7.498-2.268" stroke="#020064" stroke-linecap="round" stroke-linejoin="round" stroke-width="4"/><path d="m295.572 146.672c9.497 9.497 15.964 21.597 18.584 34.77 2.619 13.173 1.274 26.827-3.866 39.235s-13.843 23.014-25.011 30.475c-11.167 7.462-24.296 11.444-37.727 11.444s-26.56-3.982-37.727-11.444c-11.167-7.461-19.871-18.067-25.011-30.475s-6.485-26.062-3.865-39.235c2.619-13.173 9.086-25.273 18.583-34.77 6.306-6.306 13.792-11.309 22.032-14.722 8.239-3.413 17.07-5.17 25.988-5.17s17.749 1.757 25.989 5.17c8.239 3.413 15.725 8.416 22.031 14.722z" stroke="#020064" stroke-linecap="round" stroke-linejoin="round" stroke-width="4"/><path d="m117.084 277.356c0 7.439 2.955 14.573 8.215 19.833s12.394 8.215 19.833 8.215 14.573-2.955 19.833-8.215 8.215-12.394 8.215-19.833-2.955-14.573-8.215-19.833-12.394-8.215-19.833-8.215-14.573 2.955-19.833 8.215-8.215 12.394-8.215 19.833z" fill="#fff" stroke="#020064" stroke-linecap="round" stroke-linejoin="round" stroke-width="4"/><path d="m136.108 276.704c0 2.393.951 4.689 2.643 6.381 1.693 1.692 3.988 2.643 6.381 2.643s4.689-.951 6.381-2.643 2.643-3.988 2.643-6.381v-4.512c0-2.393-.951-4.689-2.643-6.381s-3.988-2.643-6.381-2.643-4.688.951-6.381 2.643c-1.692 1.692-2.643 3.988-2.643 6.381z" fill="#fff" stroke="#020064" stroke-linecap="round" stroke-linejoin="round" stroke-width="4"/><path d="m163.884 298.212c-5.147 4.625-11.823 7.184-18.744 7.184-6.92 0-13.596-2.559-18.744-7.184 1.54-3.697 4.14-6.856 7.471-9.078 3.331-2.223 7.246-3.411 11.251-3.415 4.004-.003 7.921 1.178 11.256 3.395 3.335 2.218 5.94 5.372 7.486 9.066" fill="#b0d9ff"/><path d="m163.884 298.212c-5.147 4.625-11.823 7.184-18.744 7.184-6.92 0-13.596-2.559-18.744-7.184 1.54-3.697 4.14-6.856 7.471-9.078 3.331-2.223 7.246-3.411 11.251-3.415 4.004-.003 7.921 1.178 11.256 3.395 3.335 2.218 5.94 5.372 7.486 9.066" stroke="#020064" stroke-linecap="round" stroke-linejoin="round" stroke-width="4"/><path d="m136.184 271.028c.237-1.82 1.023-3.524 2.253-4.885 1.231-1.362 2.847-2.316 4.633-2.735 1.787-.42 3.659-.284 5.366.387 1.708.672 3.17 1.849 4.192 3.373-2.135 2.071-4.792 3.524-7.688 4.203-2.896.68-5.922.561-8.756-.343z" fill="#b0d9ff" stroke="#020064" stroke-linecap="round" stroke-linejoin="round" stroke-width="4"/><path d="m68.9001 75.016c0 7.4388 2.9551 14.5729 8.2151 19.8329 5.26 5.2601 12.3941 8.2151 19.8329 8.2151 7.4389 0 14.5729-2.955 19.8329-8.2151 5.26-5.26 8.215-12.3941 8.215-19.8329s-2.955-14.5729-8.215-19.8329c-5.26-5.2601-12.394-8.2151-19.8329-8.2151-7.4388 0-14.5729 2.955-19.8329 8.2151-5.26 5.26-8.2151 12.3941-8.2151 19.8329z" fill="#fff" stroke="#020064" stroke-linecap="round" stroke-linejoin="round" stroke-width="4"/><path d="m87.9202 74.364c.0497 2.3609 1.0225 4.6084 2.7098 6.2606 1.6872 1.6521 3.9547 2.5774 6.3162 2.5774 2.3614 0 4.6288-.9253 6.3158-2.5774 1.688-1.6522 2.66-3.8997 2.71-6.2606v-4.512c-.05-2.361-1.022-4.6084-2.71-6.2606-1.687-1.6521-3.9544-2.5774-6.3158-2.5774-2.3615 0-4.629.9253-6.3162 2.5774-1.6873 1.6522-2.6601 3.8996-2.7098 6.2606z" fill="#fff" stroke="#020064" stroke-linecap="round" stroke-linejoin="round" stroke-width="4"/><path d="m115.696 95.876c-5.149 4.623-11.824 7.18-18.744 7.18-6.9196 0-13.5952-2.557-18.744-7.18 1.5402-3.6969 4.1396-6.8555 7.4708-9.0785 3.3313-2.223 7.2457-3.4109 11.2506-3.4143 4.0046-.0035 7.9216 1.1778 11.2566 3.3951s5.939 5.3715 7.486 9.0657" fill="#b0d9ff"/><path d="m115.696 95.876c-5.149 4.623-11.824 7.18-18.744 7.18-6.9196 0-13.5952-2.557-18.744-7.18 1.5402-3.6969 4.1396-6.8555 7.4708-9.0785 3.3313-2.223 7.2457-3.4109 11.2506-3.4143 4.0046-.0035 7.9216 1.1778 11.2566 3.3951s5.939 5.3715 7.486 9.0657" stroke="#020064" stroke-linecap="round" stroke-linejoin="round" stroke-width="4"/><path d="m88 68.688c.2355-1.8207 1.021-3.5261 2.2515-4.8885 1.2304-1.3624 2.8473-2.317 4.6347-2.7361 1.7873-.4191 3.66-.2829 5.3678.3905 1.708.6734 3.17 1.8519 4.19 3.3781-2.136 2.0698-4.7933 3.5215-7.6891 4.2005-2.8958.6791-5.9215.56-8.7549-.3445z" fill="#b0d9ff" stroke="#020064" stroke-linecap="round" stroke-linejoin="round" stroke-width="4"/></svg>