<svg fill="none" height="24" viewBox="0 0 24 24" width="24" xmlns="http://www.w3.org/2000/svg"><g stroke="#2a353d" stroke-linecap="round" stroke-width="1.5"><path d="m12 6v14"/><path d="m5.98056 3.28544c3.34119.63616 5.33254 1.96687 6.01944 2.73084.6869-.76397 2.6782-2.09468 6.0194-2.73084 1.6927-.32229 2.539-.48343 3.2598.1342s.7208 1.62058.7208 3.62648v7.20888c0 1.8341 0 2.7511-.4626 3.3237-.4626.5725-1.481.7664-3.518 1.1543-1.8157.3457-3.2328.8965-4.2586 1.4501-1.0092.5446-1.5138.8169-1.7608.8169s-.7516-.2723-1.7608-.8169c-1.02576-.5536-2.44287-1.1044-4.25864-1.4501-2.03691-.3879-3.05536-.5818-3.51796-1.1543-.4626-.5726-.4626-1.4896-.4626-3.3237v-7.20888c0-2.0059 0-3.00885.72078-3.62648.72079-.61763 1.56712-.45649 3.25978-.1342z" stroke-linejoin="round"/></g></svg>